<?xml version="1.0" encoding="utf-8"?>
<!-- Generator: Adobe Illustrator 16.0.0, SVG Export Plug-In . SVG Version: 6.00 Build 0)  -->
<!DOCTYPE svg PUBLIC "-//W3C//DTD SVG 1.1//EN" "http://www.w3.org/Graphics/SVG/1.1/DTD/svg11.dtd">
<svg xmlns:xlink="http://www.w3.org/1999/xlink" version="1.1" id="Layer_1" xmlns="http://www.w3.org/2000/svg" x="0px" y="0px"
	 width="100px" height="33.373px" viewBox="0 0 100 33.373" enable-background="new 0 0 100 33.373" xml:space="preserve">
<g>
	<path id="XMLID_466_" d="M90.306,29.809l0.27-0.664l-4.012-9.601h2.464l2.778,7.106l2.543-7.106h2.399l-4.391,11.007l-0.646,1.625
		h-2.354L90.306,29.809z"/>
	<path id="XMLID_515_" d="M28.787,17.698c0.884,0.772,1.327,1.847,1.327,3.252c0,1.469-0.442,2.604-1.327,3.411
		c-0.885,0.806-2.131,1.216-3.742,1.216H22.25v3.758h-2.447v-12.79h5.242C26.656,16.545,27.903,16.924,28.787,17.698z M27.05,22.813
		c0.49-0.395,0.742-0.993,0.742-1.783c0-0.774-0.252-1.358-0.742-1.754c-0.489-0.395-1.2-0.584-2.132-0.584H22.25v4.738h2.668
		C25.834,23.413,26.545,23.208,27.05,22.813z"/>
	<path id="XMLID_513_" d="M51.747,17.051v4.357c0.662-1.278,1.848-1.928,3.521-1.958c1.121,0,2.005,0.332,2.652,1.011
		c0.646,0.68,0.963,1.596,0.963,2.747v6.111h-2.399v-5.416c0-0.681-0.188-1.216-0.584-1.611s-0.916-0.601-1.597-0.601
		c-0.789,0.017-1.42,0.285-1.879,0.807c-0.457,0.521-0.693,1.2-0.693,2.005v4.802h-2.369V15.818h0.269L51.747,17.051z"/>
	<path id="XMLID_511_" d="M59.815,19.577l2.447-0.017l2.399,7.39l2.32-7.39h2.385l2.354,7.39l2.336-7.39h2.399l-3.553,9.773h-2.433
		l-2.336-6.885l-2.322,6.885h-2.432L59.815,19.577z"/>
	<g id="XMLID_508_">
		<path id="XMLID_509_" d="M42.714,25.087v-4.832H41.34l-0.016-1.735h1.39v-2.685h2.353v2.685h2.795v1.735h-2.795v4.406v4.658
			h-2.353V25.087"/>
	</g>
	<g id="XMLID_173_">
		<path id="XMLID_503_" d="M13.66,17.066c-1.216-0.742-6.048-3.963-7.027-8.922C5.891,4.766,7.612,1.197,7.612,1.197
			c-1.674,7.611,5.021,12.379,5.906,12.979L13.66,17.066z"/>
		<path id="XMLID_502_" d="M5.244,19.371c0.884,5.037,7.137,12.555,5.005,9.001c-2.132-3.553-0.158-4.374-0.174-4.737
			C9.223,23.191,7.297,21.835,5.244,19.371"/>
		<path id="XMLID_501_" d="M6.823,1.197c0,0-3.395,5.227,0.095,10.974c0,0,1.137,2.084,3.19,3.695l0.347,7.09
			c0,0-6.458-4.104-7.074-9.222C2.764,8.618,4.423,3.266,6.823,1.197z"/>
		<g>
			<path d="M16.212,23.973c-0.021-0.004-0.042-0.007-0.057-0.021c-0.241-0.227-0.496-0.455-0.75-0.683
				c-0.246,0.62-0.617,1.255-1.16,1.639c0.218,0.237,0.416,0.496,0.568,0.78c0.221,0.41,0.79,1.642,0.584,2.101
				C15.985,26.481,16.197,25.162,16.212,23.973z"/>
			<path d="M11.102,16.328l-0.03-0.02l0.021,0.371C11.096,16.563,11.094,16.451,11.102,16.328z"/>
			<path d="M15.255,23.082c0.032-0.064,0.159-0.095,0.206-0.048c0.242,0.23,0.497,0.457,0.752,0.686
				c-0.022-2.014-0.601-3.61-0.863-4.049c-0.426-0.71-3.6-2.921-3.6-2.921l-0.648-0.422c-0.003,0.209-0.021,3.936,2.526,4.779
				l1.232,1.453c0,0-0.979,0.601-1.5-0.506l-0.206-0.772c0.001,0-1.578-0.592-1.977-3.135l0.289,5.014
				c0.378,0.3,0.662,0.537,1.041,0.711c0.126,0.063,0.269,0.108,0.426,0.174c0.332,0.109,0.664,0.269,0.932,0.488
				c0.095,0.072,0.17,0.167,0.256,0.251C14.675,24.379,15.032,23.707,15.255,23.082z"/>
		</g>
	</g>
	<path id="XMLID_496_" d="M31.408,20.666c0.774-0.427,1.469-0.727,2.101-0.915c0.631-0.188,1.358-0.284,2.195-0.284
		c1.263,0,2.258,0.301,2.953,0.916c0.695,0.614,1.058,1.469,1.074,2.559l0.016,6.395h-0.268l-2.069-1.184
		c-0.347,0.426-0.773,0.742-1.311,0.963c-0.537,0.221-1.153,0.331-1.848,0.331c-0.679,0-1.279-0.126-1.8-0.396
		c-0.521-0.269-0.916-0.632-1.2-1.089c-0.284-0.459-0.426-0.979-0.426-1.548c0-0.916,0.316-1.626,0.963-2.146
		c0.647-0.521,1.563-0.791,2.748-0.791h2.858v-0.252c0-0.568-0.189-1.011-0.568-1.326s-0.932-0.475-1.643-0.475
		c-0.552,0-1.121,0.11-1.721,0.332L31.408,20.666z M36.572,27.124c0.49-0.315,0.758-0.728,0.821-1.198V25.04H34.93
		c-0.632,0-1.105,0.095-1.405,0.284c-0.3,0.189-0.442,0.488-0.442,0.916c0,0.41,0.158,0.742,0.474,0.979
		c0.315,0.236,0.726,0.362,1.263,0.362C35.498,27.614,36.082,27.456,36.572,27.124z"/>
	<path id="XMLID_493_" d="M77.437,20.714c0.773-0.427,1.469-0.727,2.101-0.916c0.632-0.188,1.358-0.284,2.194-0.284
		c1.264,0,2.259,0.301,2.953,0.916c0.695,0.615,1.059,1.469,1.074,2.559l0.016,6.395h-0.27l-2.068-1.184
		c-0.346,0.426-0.773,0.742-1.311,0.963s-1.152,0.332-1.848,0.332c-0.68,0-1.278-0.127-1.801-0.395
		c-0.521-0.271-0.916-0.633-1.199-1.09c-0.284-0.459-0.428-0.979-0.428-1.549c0-0.915,0.316-1.626,0.963-2.146
		c0.648-0.521,1.564-0.789,2.748-0.789h2.859v-0.254c0-0.567-0.189-1.01-0.57-1.325c-0.379-0.315-0.93-0.474-1.642-0.474
		c-0.553,0-1.12,0.109-1.722,0.332L77.437,20.714z M82.585,27.172c0.489-0.314,0.758-0.727,0.82-1.199v-0.886h-2.463
		c-0.631,0-1.105,0.097-1.405,0.285s-0.442,0.489-0.442,0.916c0,0.41,0.158,0.742,0.476,0.979c0.315,0.235,0.728,0.362,1.263,0.362
		C81.511,27.661,82.095,27.487,82.585,27.172z"/>
</g>
</svg>
