<?xml version="1.0" encoding="utf-8"?>
<!-- Generator: Adobe Illustrator 16.0.0, SVG Export Plug-In . SVG Version: 6.00 Build 0)  -->
<!DOCTYPE svg PUBLIC "-//W3C//DTD SVG 1.1//EN" "http://www.w3.org/Graphics/SVG/1.1/DTD/svg11.dtd">
<svg version="1.1" id="Layer_1" xmlns="http://www.w3.org/2000/svg" xmlns:xlink="http://www.w3.org/1999/xlink" x="0px" y="0px"
	 width="100px" height="33.373px" viewBox="0 0 100 33.373" enable-background="new 0 0 100 33.373" xml:space="preserve">
<g>
	<g id="XMLID_173_">
		<path id="XMLID_503_" fill="#FFFFFF" d="M13.842,18.592c-1.273-0.776-6.329-4.147-7.353-9.336
			C5.713,5.722,7.514,1.987,7.514,1.987c-1.751,7.964,5.253,12.953,6.18,13.581L13.842,18.592z"/>
		<path id="XMLID_502_" fill="#FFFFFF" d="M5.036,21.004c0.925,5.271,7.467,13.136,5.237,9.418s-0.166-4.577-0.182-4.957
			C9.2,25,7.184,23.582,5.036,21.004"/>
		<path id="XMLID_501_" fill="#FFFFFF" d="M6.688,1.987c0,0-3.552,5.469,0.099,11.482c0,0,1.19,2.181,3.338,3.867l0.363,7.419
			c0,0-6.757-4.294-7.402-9.65C2.441,9.752,4.177,4.152,6.688,1.987z"/>
		<g>
			<path fill="#FFFFFF" d="M16.512,25.819c-0.022-0.005-0.044-0.008-0.06-0.022c-0.251-0.237-0.519-0.477-0.785-0.715
				c-0.257,0.649-0.645,1.313-1.213,1.715c0.228,0.249,0.436,0.519,0.594,0.816c0.231,0.43,0.827,1.718,0.611,2.198
				C16.274,28.443,16.496,27.063,16.512,25.819z"/>
			<path fill="#FFFFFF" d="M11.166,17.819l-0.032-0.021l0.022,0.388C11.159,18.065,11.157,17.948,11.166,17.819z"/>
			<path fill="#FFFFFF" d="M15.511,24.887c0.034-0.066,0.167-0.1,0.216-0.05c0.253,0.24,0.52,0.478,0.787,0.717
				c-0.023-2.106-0.629-3.776-0.903-4.236c-0.446-0.743-3.767-3.057-3.767-3.057l-0.678-0.441c-0.003,0.219-0.022,4.119,2.643,5
				l1.289,1.521c0,0-1.024,0.63-1.57-0.529l-0.215-0.808c0.001,0-1.651-0.619-2.069-3.279l0.302,5.246
				c0.396,0.313,0.693,0.562,1.089,0.743c0.132,0.065,0.282,0.112,0.446,0.183c0.347,0.114,0.695,0.281,0.975,0.511
				c0.099,0.075,0.178,0.175,0.268,0.263C14.904,26.243,15.278,25.54,15.511,24.887z"/>
		</g>
	</g>
	<g>
		<path id="XMLID_466_" fill="#FFFFFF" d="M90.307,25.499l0.27-0.664l-4.012-9.602h2.463l2.779,7.105l2.543-7.105h2.398
			L92.357,26.24l-0.646,1.625h-2.354L90.307,25.499z"/>
		<path id="XMLID_515_" fill="#FFFFFF" d="M28.787,13.388c0.884,0.771,1.327,1.847,1.327,3.252c0,1.469-0.442,2.604-1.327,3.41
			c-0.885,0.807-2.131,1.217-3.742,1.217H22.25v3.758h-2.447v-12.79h5.242C26.656,12.234,27.903,12.613,28.787,13.388z
			 M27.05,18.503c0.49-0.396,0.742-0.994,0.742-1.783c0-0.774-0.252-1.358-0.742-1.754c-0.489-0.396-1.2-0.584-2.132-0.584H22.25
			v4.738h2.668C25.834,19.103,26.545,18.897,27.05,18.503z"/>
		<path id="XMLID_513_" fill="#FFFFFF" d="M51.747,12.74v4.357c0.662-1.278,1.849-1.929,3.521-1.958
			c1.121,0,2.006,0.332,2.652,1.011c0.646,0.681,0.963,1.597,0.963,2.747v6.111h-2.398v-5.416c0-0.682-0.188-1.217-0.584-1.611
			c-0.396-0.395-0.916-0.602-1.598-0.602c-0.789,0.018-1.42,0.285-1.879,0.808c-0.457,0.521-0.693,1.2-0.693,2.005v4.803h-2.369
			V11.508h0.269L51.747,12.74z"/>
		<path id="XMLID_511_" fill="#FFFFFF" d="M59.814,15.267l2.447-0.018l2.399,7.391l2.319-7.391h2.386l2.354,7.391l2.336-7.391h2.398
			l-3.553,9.773h-2.434l-2.336-6.885l-2.322,6.885h-2.432L59.814,15.267z"/>
		<g id="XMLID_508_">
			<path id="XMLID_509_" fill="#FFFFFF" d="M42.714,20.776v-4.832H41.34l-0.016-1.734h1.39v-2.686h2.353v2.686h2.795v1.734h-2.795
				v4.406v4.658h-2.353V20.776"/>
		</g>
		<path id="XMLID_496_" fill="#FFFFFF" d="M31.408,16.355c0.774-0.427,1.469-0.728,2.101-0.915c0.631-0.188,1.358-0.284,2.195-0.284
			c1.263,0,2.258,0.302,2.953,0.916c0.695,0.614,1.058,1.47,1.074,2.56l0.016,6.395h-0.268l-2.069-1.184
			c-0.347,0.426-0.773,0.742-1.311,0.963c-0.537,0.221-1.153,0.33-1.848,0.33c-0.679,0-1.279-0.125-1.8-0.396
			c-0.521-0.269-0.916-0.632-1.2-1.089c-0.284-0.459-0.426-0.979-0.426-1.548c0-0.916,0.316-1.626,0.963-2.146
			c0.647-0.521,1.563-0.791,2.748-0.791h2.858v-0.252c0-0.568-0.189-1.012-0.568-1.326c-0.379-0.315-0.932-0.476-1.643-0.476
			c-0.552,0-1.121,0.11-1.721,0.332L31.408,16.355z M36.572,22.813c0.49-0.314,0.758-0.729,0.821-1.198v-0.886H34.93
			c-0.632,0-1.105,0.095-1.405,0.284c-0.3,0.188-0.442,0.487-0.442,0.916c0,0.409,0.158,0.741,0.474,0.979
			c0.315,0.236,0.726,0.362,1.263,0.362C35.498,23.304,36.082,23.146,36.572,22.813z"/>
		<path id="XMLID_493_" fill="#FFFFFF" d="M77.438,16.403c0.772-0.427,1.469-0.727,2.101-0.916c0.632-0.188,1.358-0.283,2.194-0.283
			c1.264,0,2.259,0.301,2.953,0.916c0.694,0.614,1.059,1.469,1.073,2.559l0.017,6.395h-0.271l-2.067-1.184
			c-0.347,0.426-0.773,0.742-1.312,0.963s-1.151,0.332-1.849,0.332c-0.68,0-1.277-0.127-1.801-0.395
			c-0.521-0.271-0.916-0.634-1.199-1.091c-0.283-0.459-0.428-0.979-0.428-1.549c0-0.915,0.316-1.626,0.963-2.146
			c0.648-0.521,1.564-0.789,2.748-0.789h2.859v-0.254c0-0.567-0.189-1.01-0.57-1.326c-0.379-0.314-0.93-0.473-1.642-0.473
			c-0.554,0-1.12,0.108-1.722,0.332L77.438,16.403z M82.585,22.861c0.489-0.313,0.758-0.728,0.819-1.198v-0.887h-2.463
			c-0.631,0-1.104,0.098-1.404,0.285c-0.301,0.188-0.441,0.488-0.441,0.916c0,0.41,0.157,0.742,0.475,0.979
			c0.316,0.235,0.729,0.362,1.264,0.362C81.512,23.351,82.096,23.177,82.585,22.861z"/>
	</g>
</g>
</svg>
