<?xml version="1.0" encoding="utf-8"?>
<!-- Generator: Adobe Illustrator 19.0.0, SVG Export Plug-In . SVG Version: 6.00 Build 0)  -->
<svg xmlns:xlink="http://www.w3.org/1999/xlink" version="1.1" id="Layer_1" xmlns="http://www.w3.org/2000/svg" x="0px" y="0px"
	 viewBox="0 0 312.7 299.5" style="enable-background:new 0 0 312.7 299.5;" xml:space="preserve">
<style type="text/css">
	.st0{fill:#2F313A;}
	.st1{fill:#F9F9FA;}
	.st2{fill:#68BE58;}
	.st3{fill:#070808;}
	.st4{opacity:0.51;fill:#58595A;}
</style>
<path id="XMLID_25_" class="st0" d="M96.1,263.4c-42.8-2-77-41.7-77-90.4c0-17,4.2-32.9,11.4-46.4l137.9,0
	c7.2,13.6,11.4,29.5,11.4,46.4c0,48.7-34.2,88.5-77,90.4l0-13.9h-6.6L96.1,263.4z"/>
<path id="XMLID_235_" class="st0" d="M37.7,112.5c0-36.5,26.9-66.1,60.1-66.1S158,76,158,112.5H37.7z"/>
<path id="XMLID_28_" class="st1" d="M99,89.8c5.2-0.6,9.3-5,9.3-10.4c0-5.4-4.1-9.8-9.3-10.4l0-9h-2.4l0,9c-5.2,0.6-9.3,5-9.3,10.4
	c0,5.4,4.1,9.8,9.3,10.4l0,9.1H99L99,89.8z"/>
<rect id="XMLID_173_" x="80.8" y="117.1" class="st0" width="37.3" height="4.8"/>
<rect id="XMLID_109_" x="95.9" class="st2" width="34.2" height="16.1"/>
<circle id="XMLID_105_" class="st3" cx="19.4" cy="203.6" r="0.2"/>
<path id="XMLID_103_" class="st1" d="M92.3,143.9l6.7,6.7c0,0,0.2,0.1,0.4,0.1c0.2,0,0.4-0.1,0.4-0.1l6.7-6.7l0,0l6.2,6.2
	c0,0,0.3,0.2,0.6,0.1s0.4-0.5,0.4-0.5v-12.5c0,0,0-0.3-0.4-0.5c-0.3-0.1-0.6,0.1-0.6,0.1s-6.1,6.1-6.1,6.1l-6.7-6.7
	c0,0-0.1-0.2-0.4-0.2c-0.2,0-0.4,0.1-0.4,0.1l-6.7,6.7l0,0l-6.1-6.1c0,0-0.3-0.2-0.6-0.1c-0.3,0.1-0.4,0.5-0.4,0.5v12.5
	c0,0,0.1,0.3,0.4,0.5s0.6-0.1,0.6-0.1L92.3,143.9L92.3,143.9z"/>
<ellipse id="XMLID_102_" class="st4" cx="99.7" cy="294.3" rx="29.9" ry="5.3"/>
<circle id="XMLID_382_" class="st2" cx="97.9" cy="195" r="26.5"/>
<path id="XMLID_26_" class="st0" d="M173.7,126.1c0,0,10.5-5.7,20.2,4.2c4.2,4.7,4.5,9,4.5,9h9.2c0,0-0.3-2.9-2-8.7
	c-1.1-3.1,1-3.1,1-3.1s58.8,0,58.9,0c0.4,0,0.8,0,1.1,0.2c1,0.5,1.3,2,1.6,3c0.3,1.2,0.6,2.3,0.8,3.5c0.1,0.3,0.1,0.6,0.1,0.8
	l10.7-2c0,0-0.3-1.9-1.3-4.6c-0.9-2.2,1-1.9,1-1.9l24.2-1.2c0,0,8-0.3,8.8,5.8c0.8,6-5.6,8.1-5.6,8.1s-3.2,1.3-5.6,1.7
	c-3.6,1.2-13.2,3-16.8,3.2l-5.1,0.2c0,0-1.1,0.1-0.5-1.4c0.6-1.5,1-3.7,1-3.7l-10.8,2c0,0-0.5,4-1.8,7c0,0-0.2,0.9-1.2,1.2
	c-0.9,0.4-10.6,2.5-10.6,2.5s-12.3,2.6-18.2,3.3c-6,0.7-13.6,1.6-18.6,1.7c0,0-8.6,0.3-12.1,0c-2.5,0.1-1.5-1.9-1.5-1.9
	s2.1-3,2.5-9.7l-9.3,0c0,0-0.8,5.7-4.9,9.8c-4.6,4.5-9.4,4.8-9.4,4.8S183.1,145.3,173.7,126.1z"/>
<path id="XMLID_27_" class="st0" d="M25,126c0,0-11.7-5.6-20.9,4.9c0,0-4.6,4.8-4,12.8s6.3,12.4,6.3,12.4l-1.6,5.1l-1.9-1.4
	c0,0-0.9-0.7-2,0s-0.7,2.6-0.7,2.6s0.7,8,2.6,13.5c1.9,5.5,3.5,10,6.9,15.6c3.3,5.7,8.1,10.9,8.1,10.9l1.4,1.5c0,0,0.1,0.2,0.3,0.1
	s0.1-0.3,0.1-0.3l-0.8-2.2c0,0-0.9-2.9-1-3.2s-3.2-10.2-3.7-16c-0.7-5.4-0.6-8.7-0.6-8.7s0-3.8,0.7-6.7c0,0,0.3-0.6-0.2-1.4
	c-0.3-0.6-0.9-0.7-0.9-0.7s-3.9-1.1-4.5-1.5l1.4-4.7c0,0,2.3,1.1,4.7,1.4C17.3,140,25,126,25,126z"/>
<path id="XMLID_169_" class="st0" d="M96,28.9l0-12.7h3.7c0,0,0,12.7,0,12.7c7.6,1,13.8,8.1,13.4,15.1c-15.2-5-30.5,0-30.5,0
	C82.5,36.2,88.4,29.8,96,28.9z"/>
</svg>
