<?xml version="1.0" encoding="utf-8"?>
<!-- Generator: Adobe Illustrator 16.0.0, SVG Export Plug-In . SVG Version: 6.00 Build 0)  -->
<!DOCTYPE svg PUBLIC "-//W3C//DTD SVG 1.1//EN" "http://www.w3.org/Graphics/SVG/1.1/DTD/svg11.dtd">
<svg xmlns:xlink="http://www.w3.org/1999/xlink" version="1.1" id="Layer_1" xmlns="http://www.w3.org/2000/svg" x="0px" y="0px"
	 width="100px" height="100px" viewBox="0 0 100 100" enable-background="new 0 0 100 100" xml:space="preserve">
<rect id="XMLID_984_" x="48.677" y="0.113" fill="#5CBA47" width="12.925" height="6.085"/>
<path id="XMLID_982_" fill="#FFFFFF" d="M48.715,100c-16.175-0.756-29.1-15.76-29.1-34.164c0-6.426,1.587-12.435,4.308-17.537
	h52.116c2.721,5.14,4.309,11.149,4.309,17.537c0,18.404-12.926,33.445-29.101,34.164v-5.254h-2.494L48.715,100z"/>
<path id="XMLID_981_" fill="#FFFFFF" d="M26.644,42.971c0-13.794,10.166-24.981,22.713-24.981c12.547,0,22.752,11.187,22.752,24.981
	H26.644z"/>
<rect id="XMLID_980_" x="42.933" y="44.709" fill="#FFFFFF" width="14.097" height="1.814"/>
<path id="XMLID_979_" fill="#FFFFFF" d="M48.677,10.998V6.198h1.398v4.799c2.872,0.378,5.215,3.062,5.064,5.707
	c-5.744-1.89-11.527,0-11.527,0C43.613,13.757,45.843,11.338,48.677,10.998z"/>
<path id="XMLID_978_" fill="#FFFFFF" d="M21.844,48.073c0,0-4.422-2.117-7.898,1.852c0,0-1.739,1.814-1.512,4.837
	c0.227,3.023,2.381,4.687,2.381,4.687l-0.605,1.927l-0.756-0.528c0,0-0.34-0.265-0.756,0c-0.416,0.265-0.264,0.982-0.264,0.982
	s0.264,3.023,0.982,5.103c0.718,2.078,1.323,3.779,2.608,5.896c1.247,2.153,3.061,4.119,3.061,4.119l0.529,0.567
	c0,0,0.038,0.075,0.113,0.037c0.076-0.037,0.038-0.113,0.038-0.113l-0.302-0.831c0,0-0.34-1.097-0.378-1.21
	s-1.209-3.854-1.398-6.047c-0.265-2.041-0.227-3.287-0.227-3.287s0-1.437,0.265-2.533c0,0,0.113-0.227-0.076-0.528
	c-0.113-0.228-0.34-0.265-0.34-0.265s-1.474-0.416-1.701-0.566l0.529-1.777c0,0,0.869,0.416,1.776,0.529
	C18.934,53.363,21.844,48.073,21.844,48.073z"/>
<path id="XMLID_1000_" fill="#FFFFFF" d="M78.156,48.073c0,0,4.422-2.117,7.898,1.852c0,0,1.738,1.814,1.512,4.837
	s-2.381,4.687-2.381,4.687l0.604,1.927l0.718-0.528c0,0,0.34-0.265,0.756,0s0.265,0.982,0.265,0.982s-0.265,3.023-0.982,5.103
	c-0.718,2.078-1.323,3.779-2.608,5.896c-1.246,2.153-3.061,4.119-3.061,4.119l-0.529,0.567c0,0-0.037,0.075-0.113,0.037
	c-0.076-0.037-0.038-0.113-0.038-0.113l0.303-0.831c0,0,0.34-1.097,0.378-1.21c0.037-0.113,1.209-3.854,1.398-6.047
	c0.264-2.041,0.227-3.287,0.227-3.287s0-1.437-0.265-2.533c0,0-0.113-0.227,0.075-0.528c0.113-0.228,0.34-0.265,0.34-0.265
	s1.475-0.416,1.701-0.566l-0.529-1.777c0,0-0.869,0.416-1.775,0.529C81.027,53.363,78.156,48.073,78.156,48.073z"/>
<path id="XMLID_977_" fill="#2F313A" d="M49.811,34.392c1.965-0.227,3.515-1.89,3.515-3.931c0-2.041-1.55-3.704-3.515-3.93v-3.401
	h-0.907v3.401c-1.965,0.227-3.515,1.89-3.515,3.93c0,2.041,1.55,3.704,3.515,3.931v3.439h0.907V34.392z"/>
<path id="XMLID_976_" fill="#2F313A" d="M47.279,54.838l2.532,2.531c0,0,0.076,0.038,0.151,0.038c0.075,0,0.151-0.038,0.151-0.038
	l2.532-2.531l0,0l2.343,2.343c0,0,0.113,0.075,0.227,0.038c0.113-0.038,0.152-0.189,0.152-0.189v-4.725c0,0,0-0.113-0.152-0.188
	c-0.113-0.038-0.227,0.038-0.227,0.038l-2.305,2.305l-2.532-2.531c0,0-0.038-0.076-0.151-0.076c-0.076,0-0.151,0.038-0.151,0.038
	l-2.532,2.532l0,0l-2.306-2.306c0,0-0.113-0.075-0.227-0.038c-0.113,0.038-0.151,0.189-0.151,0.189v4.725
	c0,0,0.038,0.113,0.151,0.188s0.227-0.038,0.227-0.038L47.279,54.838L47.279,54.838z"/>
<circle id="XMLID_973_" fill="#5CBA47" cx="49.962" cy="74.112" r="10.015"/>
</svg>
