<?xml version="1.0" encoding="utf-8"?>
<!-- Generator: Adobe Illustrator 16.0.0, SVG Export Plug-In . SVG Version: 6.00 Build 0)  -->
<!DOCTYPE svg PUBLIC "-//W3C//DTD SVG 1.1//EN" "http://www.w3.org/Graphics/SVG/1.1/DTD/svg11.dtd">
<svg xmlns:xlink="http://www.w3.org/1999/xlink" version="1.1" id="Layer_1" xmlns="http://www.w3.org/2000/svg" x="0px" y="0px"
	 width="100px" height="100px" viewBox="0 0 100 100" enable-background="new 0 0 100 100" xml:space="preserve">
<g>
	<path id="XMLID_25_" fill="#2F313A" d="M30.737,84.342C17.033,83.701,6.082,70.989,6.082,55.396c0-5.443,1.345-10.535,3.65-14.857
		h44.156c2.306,4.354,3.65,9.446,3.65,14.857c0,15.594-10.951,28.338-24.655,28.946v-4.451H30.77L30.737,84.342z"/>
	<path id="XMLID_235_" fill="#2F313A" d="M12.038,36.055c0-11.688,8.613-21.166,19.244-21.166s19.244,9.478,19.244,21.166H12.038z"
		/>
	<path id="XMLID_28_" fill="#F9F9FA" d="M31.666,28.786c1.665-0.192,2.978-1.601,2.978-3.33c0-1.729-1.313-3.138-2.978-3.33v-2.882
		h-0.769v2.882c-1.665,0.192-2.978,1.601-2.978,3.33c0,1.729,1.313,3.138,2.978,3.33V31.7h0.769V28.786z"/>
	<rect id="XMLID_173_" x="25.838" y="37.528" fill="#2F313A" width="11.943" height="1.537"/>
	<rect id="XMLID_109_" x="30.641" fill="#2196F3" width="10.951" height="5.155"/>
	<circle id="XMLID_105_" fill="#070808" cx="6.178" cy="65.226" r="0.063"/>
	<path id="XMLID_103_" fill="#F9F9FA" d="M29.521,46.077l2.146,2.146c0,0,0.064,0.032,0.128,0.032s0.128-0.032,0.128-0.032
		l2.145-2.146l0,0l1.985,1.985c0,0,0.096,0.064,0.192,0.032c0.096-0.032,0.128-0.16,0.128-0.16v-4.002c0,0,0-0.096-0.128-0.16
		c-0.096-0.032-0.192,0.032-0.192,0.032L34.1,45.757l-2.146-2.146c0,0-0.032-0.064-0.128-0.064c-0.064,0-0.128,0.032-0.128,0.032
		l-2.146,2.145l0,0L27.6,43.772c0,0-0.096-0.064-0.192-0.032c-0.096,0.032-0.128,0.16-0.128,0.16v4.002c0,0,0.032,0.096,0.128,0.16
		c0.096,0.064,0.192-0.032,0.192-0.032L29.521,46.077L29.521,46.077z"/>

		<ellipse id="XMLID_102_" opacity="0.51" fill="#58595A" enable-background="new    " cx="31.89" cy="94.236" rx="9.574" ry="1.697"/>
	<circle id="XMLID_382_" fill="#2196F3" cx="31.282" cy="62.44" r="8.485"/>
	<path id="XMLID_26_" fill="#2F313A" d="M55.585,40.378c0,0,3.362-1.825,6.468,1.345c1.346,1.505,1.441,2.882,1.441,2.882h2.946
		c0,0-0.097-0.929-0.641-2.786c-0.353-0.993,0.32-0.993,0.32-0.993s18.828,0,18.859,0c0.129,0,0.257,0,0.353,0.064
		c0.32,0.16,0.416,0.64,0.513,0.96c0.096,0.384,0.191,0.736,0.256,1.121c0.032,0.096,0.032,0.192,0.032,0.256l3.426-0.641
		c0,0-0.096-0.608-0.416-1.473c-0.289-0.705,0.32-0.608,0.32-0.608l7.748-0.384c0,0,2.563-0.096,2.818,1.857
		c0.256,1.921-1.793,2.594-1.793,2.594s-1.025,0.417-1.793,0.544c-1.153,0.384-4.227,0.96-5.38,1.025l-1.633,0.064
		c0,0-0.353,0.032-0.16-0.448c0.192-0.48,0.32-1.185,0.32-1.185l-3.458,0.641c0,0-0.16,1.281-0.576,2.241
		c0,0-0.064,0.289-0.385,0.384c-0.288,0.128-3.395,0.801-3.395,0.801s-3.938,0.833-5.827,1.057
		c-1.921,0.224-4.354,0.512-5.956,0.544c0,0-2.754,0.096-3.874,0c-0.801,0.032-0.48-0.608-0.48-0.608s0.672-0.961,0.801-3.106
		h-2.979c0,0-0.256,1.825-1.568,3.138c-1.474,1.441-3.011,1.538-3.011,1.538S58.595,46.526,55.585,40.378z"/>
	<path id="XMLID_27_" fill="#2F313A" d="M7.939,40.378c0,0-3.747-1.793-6.692,1.569c0,0-1.473,1.537-1.281,4.099
		c0.192,2.562,2.017,3.971,2.017,3.971l-0.512,1.632l-0.608-0.447c0,0-0.288-0.225-0.641,0c-0.352,0.224-0.224,0.832-0.224,0.832
		s0.224,2.562,0.833,4.322c0.608,1.762,1.121,3.203,2.209,4.996c1.057,1.824,2.594,3.49,2.594,3.49l0.448,0.48
		c0,0,0.032,0.063,0.096,0.031c0.064-0.031,0.032-0.096,0.032-0.096l-0.256-0.705c0,0-0.288-0.928-0.32-1.024
		c-0.032-0.096-1.024-3.266-1.185-5.123c-0.224-1.729-0.192-2.786-0.192-2.786s0-1.217,0.224-2.145c0,0,0.096-0.192-0.064-0.449
		c-0.096-0.191-0.288-0.224-0.288-0.224s-1.249-0.353-1.441-0.48l0.448-1.505c0,0,0.736,0.352,1.505,0.448
		C5.505,44.829,7.939,40.378,7.939,40.378z"/>
	<path id="XMLID_169_" fill="#2F313A" d="M30.673,9.254V5.188h1.185v4.066c2.434,0.32,4.419,2.594,4.291,4.835
		c-4.867-1.601-9.766,0-9.766,0C26.383,11.591,28.272,9.542,30.673,9.254z"/>
</g>
</svg>
