<?xml version="1.0" encoding="utf-8"?>
<!-- Generator: Adobe Illustrator 19.0.0, SVG Export Plug-In . SVG Version: 6.00 Build 0)  -->
<svg xmlns:xlink="http://www.w3.org/1999/xlink" version="1.1" id="Layer_1" xmlns="http://www.w3.org/2000/svg" x="0px" y="0px"
	 viewBox="0 0 274.5 328.9" style="enable-background:new 0 0 274.5 328.9;" xml:space="preserve">
<style type="text/css">
	.st0{fill:#2F313A;}
	.st1{fill:#070808;}
	.st2{opacity:0.51;fill:#58595A;}
	.st3{fill:#E72B4F;}
	.st4{fill:#F9F9FA;}
</style>
<path id="XMLID_68_" class="st0" d="M37.9,141c0-36.7,27.1-66.4,60.4-66.4s60.4,29.7,60.4,66.4H37.9z"/>
<rect id="XMLID_67_" x="81.1" y="145.6" class="st0" width="37.5" height="4.8"/>
<circle id="XMLID_66_" class="st1" cx="19.4" cy="232.5" r="0.2"/>
<path id="XMLID_64_" class="st0" d="M113.6,70.4c0.5-7.7-6.9-15.3-15.3-15.3S83,62,83,70.4C83,70.4,98.3,65.4,113.6,70.4z"/>
<ellipse id="XMLID_61_" class="st2" cx="99.4" cy="323.6" rx="29.9" ry="5.3"/>
<path id="XMLID_28_" class="st0" d="M243.1,95.6c-0.5-0.7-1.2-1.6-2.2-2.6c-1.6-1.7,0.3-2.2,0.3-2.2l22.1-10c0,0,7.3-3.2,10.3,2.1
	c3,5.3-2.2,9.6-2.2,9.6s-2.5,2.4-4.5,3.6c-2.9,2.5-11.1,7.6-14.4,9.1l-4.7,2.1c0,0-1,0.5-1-1.1c0-0.8-0.1-1.8-0.2-2.5l0,0l-5.2,5.6
	c0.8,1.1,1.8,2.6,2.5,4.1c0,0,0.5,0.8,0.1,1.7c-0.4,0.9-5.3,9.5-5.3,9.5s-6.3,10.9-9.8,15.7c-3.5,4.9-8,11.1-11.2,14.9
	c0,0-5.5,6.6-8.1,9c-1.6,2-2.5-0.2-2.5-0.2s-0.6-2.8-4-6.8l-0.1,0.1l-4.7,6.7c1.1,2.4,1.2,4,1.2,4c0.4,3.2,0.1,6,0.1,6
	s-0.7,5.7-4.9,9.8c-4.6,4.6-9.4,4.8-9.4,4.8s-1.1-14.5-10.5-33.7c0,0,9.2-5.1,18.5,2.5l4-5.8c0,0-2.3-1.7-7.8-4.4
	c-3-1.3-1.6-2.9-1.6-2.9s39.5-43.6,39.6-43.6c0.3-0.3,0.5-0.5,0.9-0.7c1.1-0.4,2.4,0.4,3.3,0.9c1.1,0.5,2.1,1.2,3.2,1.8
	c0.2,0.1,0.5,0.3,0.7,0.4l0.5,0.3L243.1,95.6L243.1,95.6z"/>
<path id="XMLID_27_" class="st0" d="M96.1,291.9c-42.8-2-77-41.7-77-90.4c0-17,4.2-32.9,11.4-46.4l137.9,0
	c7.2,13.6,11.4,29.5,11.4,46.4c0,48.7-34.2,88.5-77,90.4l0-13.9h-6.6L96.1,291.9z"/>
<circle id="XMLID_26_" class="st3" cx="99.9" cy="223.9" r="26.5"/>
<path id="XMLID_25_" class="st0" d="M25,154.5c0,0-11.7-5.6-20.9,4.9c0,0-4.6,4.8-4,12.8s6.3,12.4,6.3,12.4l-1.6,5.1l-1.9-1.4
	c0,0-0.9-0.7-2,0c-1.1,0.7-0.7,2.6-0.7,2.6s0.7,8,2.6,13.5s3.5,10,6.9,15.6c3.3,5.7,8.1,10.9,8.1,10.9l1.4,1.5c0,0,0.1,0.2,0.3,0.1
	s0.1-0.3,0.1-0.3l-0.8-2.2c0,0-0.9-2.9-1-3.2s-3.2-10.2-3.7-16c-0.7-5.4-0.6-8.7-0.6-8.7s0-3.8,0.7-6.7c0,0,0.3-0.6-0.2-1.4
	c-0.3-0.6-0.9-0.7-0.9-0.7s-3.9-1.1-4.5-1.5l1.4-4.7c0,0,2.3,1.1,4.7,1.4C17.3,168.5,25,154.5,25,154.5z"/>
<path id="XMLID_13_" class="st4" d="M100.7,118.2c5.2-0.6,9.3-5,9.3-10.4c0-5.4-4.1-9.8-9.3-10.4l0-9h-2.4l0,9
	c-5.2,0.6-9.3,5-9.3,10.4c0,5.4,4.1,9.8,9.3,10.4l0,9.1h2.4L100.7,118.2z"/>
<g id="XMLID_9_">
	<circle id="XMLID_11_" class="st3" cx="98.3" cy="44" r="7"/>
	<polygon id="XMLID_10_" class="st3" points="101.2,31.2 94.2,31.2 91.3,0 105.3,0 	"/>
</g>
<path id="XMLID_65_" class="st4" d="M92.7,176.5l6.7,6.7c0,0,0.2,0.1,0.4,0.1c0.2,0,0.4-0.1,0.4-0.1l6.7-6.7l0,0l6.2,6.2
	c0,0,0.3,0.2,0.6,0.1c0.3-0.1,0.4-0.5,0.4-0.5v-12.6c0,0,0-0.3-0.4-0.5s-0.6,0.1-0.6,0.1s-6.1,6.1-6.1,6.1l-6.7-6.7
	c0,0-0.1-0.2-0.4-0.2c-0.2,0-0.4,0.1-0.4,0.1l-6.7,6.7l0,0l-6.1-6.1c0,0-0.3-0.2-0.6-0.1c-0.3,0.2-0.4,0.5-0.4,0.5v12.6
	c0,0,0.1,0.3,0.4,0.5c0.3,0.1,0.6-0.1,0.6-0.1L92.7,176.5L92.7,176.5z"/>
</svg>
