<?xml version="1.0" encoding="utf-8"?>
<!-- Generator: Adobe Illustrator 16.0.0, SVG Export Plug-In . SVG Version: 6.00 Build 0)  -->
<!DOCTYPE svg PUBLIC "-//W3C//DTD SVG 1.1//EN" "http://www.w3.org/Graphics/SVG/1.1/DTD/svg11.dtd">
<svg xmlns:xlink="http://www.w3.org/1999/xlink" version="1.1" id="Layer_1" xmlns="http://www.w3.org/2000/svg" x="0px" y="0px"
	 width="50px" height="67.935px" viewBox="20.722 16.033 50 67.935" enable-background="new 20.722 16.033 50 67.935"
	 xml:space="preserve">
<rect id="XMLID_162_" x="45.012" y="23.526" fill="#52A946" width="6.85" height="3.224"/>
<circle id="XMLID_161_" fill="#070808" cx="29.665" cy="64.493" r="0.041"/>
<path id="XMLID_672_" fill="#FFFFFF" d="M45.032,76.475c-8.574-0.4-15.427-8.355-15.427-18.113c0-3.402,0.842-6.59,2.284-9.292
	h27.627c1.442,2.722,2.286,5.909,2.286,9.292c0,9.758-6.855,17.732-15.428,18.113v-2.785h-1.323L45.032,76.475z"/>
<path id="XMLID_671_" fill="#FFFFFF" d="M33.331,46.243c0-7.312,5.39-13.241,12.04-13.241c6.654,0,12.063,5.93,12.063,13.241H33.331
	z"/>
<rect id="XMLID_171_" x="41.966" y="47.166" fill="#FFFFFF" width="7.472" height="0.961"/>
<path id="XMLID_170_" fill="#FFFFFF" d="M45.012,29.295V26.75h0.741v2.545c1.522,0.199,2.764,1.622,2.685,3.024
	c-3.045-1.001-6.111,0-6.111,0C42.326,30.758,43.509,29.476,45.012,29.295z"/>
<path id="XMLID_64_" fill="#FFFFFF" d="M30.787,48.949c0,0-2.343-1.122-4.187,0.98c0,0-0.921,0.963-0.801,2.564
	c0.121,1.604,1.262,2.485,1.262,2.485L26.74,56l-0.381-0.281c0,0-0.18-0.141-0.4,0s-0.14,0.521-0.14,0.521s0.14,1.604,0.52,2.703
	c0.38,1.104,0.701,2.005,1.383,3.125c0.661,1.144,1.623,2.185,1.623,2.185l0.279,0.302c0,0,0.02,0.039,0.061,0.02
	s0.021-0.06,0.021-0.06l-0.161-0.441c0,0-0.18-0.579-0.2-0.64c-0.02-0.062-0.641-2.046-0.742-3.207
	c-0.139-1.081-0.119-1.743-0.119-1.743s0-0.76,0.14-1.342c0,0,0.06-0.119-0.04-0.28c-0.061-0.119-0.181-0.141-0.181-0.141
	s-0.781-0.22-0.901-0.3l0.281-0.942c0,0,0.459,0.222,0.941,0.281C29.245,51.732,30.787,48.949,30.787,48.949z"/>
<path id="XMLID_670_" fill="#2F313A" d="M45.612,41.697c1.042-0.123,1.864-1.002,1.864-2.084c0-1.083-0.821-1.964-1.864-2.085
	v-1.802h-0.48v1.802c-1.042,0.121-1.863,1.002-1.863,2.085c0,1.082,0.821,1.961,1.863,2.084v1.823h0.48V41.697z"/>
<path id="XMLID_160_" fill="#2F313A" d="M44.27,52.514l1.342,1.342c0,0,0.04,0.021,0.08,0.021c0.04,0,0.08-0.021,0.08-0.021
	l1.343-1.342l0,0l1.243,1.242c0,0,0.058,0.04,0.119,0.021c0.06-0.021,0.08-0.099,0.08-0.099v-2.506c0,0,0-0.061-0.08-0.1
	c-0.061-0.02-0.119,0.02-0.119,0.02l-1.225,1.223l-1.341-1.343c0,0-0.021-0.039-0.081-0.039c-0.04,0-0.08,0.02-0.08,0.02
	l-1.342,1.342l0,0l-1.222-1.222c0,0-0.06-0.039-0.12-0.02c-0.06,0.02-0.08,0.099-0.08,0.099v2.505c0,0,0.02,0.06,0.08,0.1
	c0.06,0.04,0.12-0.02,0.12-0.02L44.27,52.514L44.27,52.514z"/>
<circle id="XMLID_61_" fill="#52A946" cx="45.692" cy="62.751" r="5.308"/>
<path id="XMLID_1_" fill="#FFFFFF" d="M62.718,55.76c0.48-0.06,0.943-0.281,0.943-0.281l0.281,0.942
	c-0.122,0.08-0.902,0.3-0.902,0.3s-0.119,0.021-0.183,0.141c-0.101,0.161-0.04,0.28-0.04,0.28c0.143,0.582,0.143,1.342,0.143,1.342
	s0.02,0.662-0.121,1.743c-0.101,1.161-0.722,3.146-0.743,3.207c-0.019,0.061-0.198,0.64-0.198,0.64l-0.161,0.441
	c0,0-0.019,0.04,0.021,0.06c0.04,0.02,0.062-0.02,0.062-0.02l0.277-0.302c0,0,0.963-1.041,1.624-2.185
	c0.682-1.12,1.002-2.021,1.383-3.125c0.381-1.1,0.519-2.703,0.519-2.703s0.082-0.381-0.138-0.521c-0.222-0.141-0.399,0-0.399,0
	L64.7,56l-0.319-1.021c0,0,1.142-0.881,1.264-2.485c0.119-1.601-0.804-2.564-0.804-2.564c-1.841-2.103-4.187-0.98-4.187-0.98
	S62.196,51.732,62.718,55.76z"/>
</svg>
