<?xml version="1.0" encoding="utf-8"?>
<!-- Generator: Adobe Illustrator 19.0.0, SVG Export Plug-In . SVG Version: 6.00 Build 0)  -->
<svg xmlns:xlink="http://www.w3.org/1999/xlink" version="1.1" id="Layer_1" xmlns="http://www.w3.org/2000/svg" x="0px" y="0px"
	 viewBox="0 0 199 299.5" style="enable-background:new 0 0 199 299.5;" xml:space="preserve">
<style type="text/css">
	.st0{fill:#5CBA47;}
	.st1{fill:#2F313A;}
	.st2{fill:#F9F9FA;}
	.st3{opacity:0.51;fill:#58595A;}
</style>
<rect id="XMLID_132_" x="96" y="0" class="st0" width="34.2" height="16.1"/>
<path id="XMLID_131_" class="st1" d="M96.1,264.3c-42.8-2-77-41.7-77-90.4c0-17,4.2-32.9,11.4-46.4l137.9,0
	c7.2,13.6,11.4,29.5,11.4,46.4c0,48.7-34.2,88.5-77,90.4l0-13.9h-6.6L96.1,264.3z"/>
<path id="XMLID_130_" class="st1" d="M37.7,113.4c0-36.5,26.9-66.1,60.1-66.1S158,76.9,158,113.4H37.7z"/>
<rect id="XMLID_129_" x="80.8" y="118" class="st1" width="37.3" height="4.8"/>
<path id="XMLID_123_" class="st1" d="M96,28.8l0-12.7h3.7c0,0,0,12.7,0,12.7c7.6,1,13.8,8.1,13.4,15.1c-15.2-5-30.5,0-30.5,0
	C82.6,36.1,88.5,29.7,96,28.8z"/>
<path id="XMLID_122_" class="st1" d="M25,126.9c0,0-11.7-5.6-20.9,4.9c0,0-4.6,4.8-4,12.8S6.4,157,6.4,157l-1.6,5.1l-1.9-1.4
	c0,0-0.9-0.7-2,0s-0.7,2.6-0.7,2.6s0.7,8,2.6,13.5c1.9,5.5,3.5,10,6.9,15.6c3.3,5.7,8.1,10.9,8.1,10.9l1.4,1.5c0,0,0.1,0.2,0.3,0.1
	c0.2-0.1,0.1-0.3,0.1-0.3l-0.8-2.2c0,0-0.9-2.9-1-3.2s-3.2-10.2-3.7-16c-0.7-5.4-0.6-8.7-0.6-8.7s0-3.8,0.7-6.7c0,0,0.3-0.6-0.2-1.4
	c-0.3-0.6-0.9-0.7-0.9-0.7s-3.9-1.1-4.5-1.5l1.4-4.7c0,0,2.3,1.1,4.7,1.4C17.3,140.8,25,126.9,25,126.9z"/>
<path id="XMLID_121_" class="st1" d="M174,126.9c0,0,11.7-5.6,20.9,4.9c0,0,4.6,4.8,4,12.8c-0.6,8-6.3,12.4-6.3,12.4l1.6,5.1
	l1.9-1.4c0,0,0.9-0.7,2,0c1.1,0.7,0.7,2.6,0.7,2.6s-0.7,8-2.6,13.5c-1.9,5.5-3.5,10-6.9,15.6c-3.3,5.7-8.1,10.9-8.1,10.9l-1.4,1.5
	c0,0-0.1,0.2-0.3,0.1c-0.2-0.1-0.1-0.3-0.1-0.3l0.8-2.2c0,0,0.9-2.9,1-3.2s3.2-10.2,3.7-16c0.7-5.4,0.6-8.7,0.6-8.7s0-3.8-0.7-6.7
	c0,0-0.3-0.6,0.2-1.4c0.3-0.6,0.9-0.7,0.9-0.7s3.9-1.1,4.5-1.5l-1.4-4.7c0,0-2.3,1.1-4.7,1.4C181.6,140.8,174,126.9,174,126.9z"/>
<path id="XMLID_120_" class="st2" d="M99,90.7c5.2-0.6,9.3-5,9.3-10.4c0-5.4-4.1-9.8-9.3-10.4l0-9h-2.4l0,9c-5.2,0.6-9.3,5-9.3,10.4
	c0,5.4,4.1,9.8,9.3,10.4l0,9.1H99L99,90.7z"/>
<path id="XMLID_119_" class="st2" d="M92.3,144.7l6.7,6.7c0,0,0.2,0.1,0.4,0.1c0.2,0,0.4-0.1,0.4-0.1l6.7-6.7l0,0l6.2,6.2
	c0,0,0.3,0.2,0.6,0.1s0.4-0.5,0.4-0.5V138c0,0,0-0.3-0.4-0.5c-0.3-0.1-0.6,0.1-0.6,0.1s-6.1,6.1-6.1,6.1l-6.7-6.7
	c0,0-0.1-0.2-0.4-0.2c-0.2,0-0.4,0.1-0.4,0.1l-6.7,6.7l0,0l-6.1-6.1c0,0-0.3-0.2-0.6-0.1c-0.3,0.1-0.4,0.5-0.4,0.5v12.5
	c0,0,0.1,0.3,0.4,0.5s0.6-0.1,0.6-0.1L92.3,144.7L92.3,144.7z"/>
<circle id="XMLID_116_" class="st0" cx="99.4" cy="195.8" r="26.5"/>
<ellipse id="XMLID_253_" class="st3" cx="99.4" cy="294.3" rx="29.9" ry="5.3"/>
</svg>
