<?xml version="1.0" encoding="utf-8"?>
<!-- Generator: Adobe Illustrator 16.0.0, SVG Export Plug-In . SVG Version: 6.00 Build 0)  -->
<!DOCTYPE svg PUBLIC "-//W3C//DTD SVG 1.1//EN" "http://www.w3.org/Graphics/SVG/1.1/DTD/svg11.dtd">
<svg xmlns:xlink="http://www.w3.org/1999/xlink" version="1.1" id="Layer_1" xmlns="http://www.w3.org/2000/svg" x="0px" y="0px"
	 width="100px" height="100px" viewBox="0 0 100 100" enable-background="new 0 0 100 100" xml:space="preserve">
<g id="XMLID_173_">
	<path id="XMLID_503_" fill="#2196F3" d="M63.928,56.457c-4.312-2.632-21.446-14.053-24.917-31.638
		c-2.632-11.982,3.471-24.635,3.471-24.635c-5.937,26.99,17.805,43.896,20.942,46.022L63.928,56.457z"/>
	<path id="XMLID_502_" fill="#2196F3" d="M34.083,64.63c3.136,17.862,25.31,44.519,17.748,31.917
		c-7.559-12.597-0.56-15.51-0.616-16.798C48.194,78.176,41.365,73.367,34.083,64.63"/>
	<path id="XMLID_501_" fill="#2196F3" d="M39.684,0.184c0,0-12.039,18.534,0.336,38.913c0,0,4.033,7.39,11.313,13.103l1.229,25.143
		c0,0-22.9-14.556-25.083-32.701C25.29,26.499,31.173,7.519,39.684,0.184z"/>
	<g>
		<path fill="#2196F3" d="M72.977,80.947c-0.072-0.014-0.148-0.024-0.201-0.076c-0.854-0.805-1.758-1.614-2.659-2.421
			c-0.873,2.198-2.187,4.448-4.114,5.812c0.773,0.842,1.475,1.76,2.014,2.768c0.785,1.453,2.803,5.82,2.072,7.447
			C72.172,89.844,72.925,85.165,72.977,80.947z"/>
		<path fill="#2196F3" d="M54.854,53.839l-0.106-0.069l0.076,1.316C54.833,54.671,54.828,54.275,54.854,53.839z"/>
		<path fill="#2196F3" d="M69.584,77.788c0.113-0.228,0.563-0.336,0.73-0.169c0.856,0.816,1.763,1.621,2.666,2.432
			c-0.08-7.142-2.129-12.803-3.062-14.357c-1.51-2.519-12.767-10.357-12.767-10.357l-2.297-1.496
			c-0.014,0.741-0.076,13.956,8.957,16.948l4.369,5.151c0,0-3.473,2.131-5.318-1.793l-0.73-2.739c0.004,0-5.594-2.099-7.011-11.116
			l1.024,17.779c1.34,1.063,2.349,1.904,3.69,2.521c0.447,0.226,0.954,0.386,1.511,0.617c1.178,0.388,2.354,0.952,3.305,1.731
			c0.337,0.256,0.604,0.592,0.908,0.89C67.525,82.389,68.791,80.005,69.584,77.788z"/>
	</g>
</g>
</svg>
