<?xml version="1.0" encoding="utf-8"?>
<!-- Generator: Adobe Illustrator 16.0.0, SVG Export Plug-In . SVG Version: 6.00 Build 0)  -->
<!DOCTYPE svg PUBLIC "-//W3C//DTD SVG 1.1//EN" "http://www.w3.org/Graphics/SVG/1.1/DTD/svg11.dtd">
<svg xmlns:xlink="http://www.w3.org/1999/xlink" version="1.1" id="Layer_1" xmlns="http://www.w3.org/2000/svg" x="0px" y="0px"
	 width="100px" height="100px" viewBox="0 0 100 100" enable-background="new 0 0 100 100" xml:space="preserve">
<g id="XMLID_173_">
	<path id="XMLID_503_" fill="#FFFFFF" d="M63.928,56.457c-4.312-2.632-21.446-14.053-24.917-31.638
		c-2.632-11.982,3.471-24.635,3.471-24.635c-5.937,26.99,17.805,43.896,20.942,46.022L63.928,56.457z"/>
	<path id="XMLID_502_" fill="#FFFFFF" d="M34.083,64.63c3.136,17.862,25.31,44.519,17.748,31.917
		c-7.559-12.597-0.559-15.51-0.616-16.798C48.194,78.176,41.365,73.367,34.083,64.63"/>
	<path id="XMLID_501_" fill="#FFFFFF" d="M39.684,0.184c0,0-12.039,18.534,0.336,38.913c0,0,4.033,7.39,11.313,13.103l1.229,25.143
		c0,0-22.9-14.556-25.083-32.701C25.29,26.499,31.173,7.519,39.684,0.184z"/>
	<g>
		<path fill="#FFFFFF" d="M72.977,80.947c-0.073-0.014-0.149-0.024-0.201-0.076c-0.855-0.804-1.758-1.614-2.66-2.421
			c-0.873,2.199-2.187,4.449-4.114,5.812c0.774,0.841,1.475,1.759,2.014,2.767c0.785,1.454,2.802,5.821,2.072,7.448
			C72.172,89.844,72.925,85.165,72.977,80.947z"/>
		<path fill="#FFFFFF" d="M54.854,53.839l-0.107-0.069l0.076,1.316C54.833,54.671,54.828,54.275,54.854,53.839z"/>
		<path fill="#FFFFFF" d="M69.584,77.788c0.113-0.228,0.563-0.336,0.73-0.169c0.857,0.816,1.763,1.621,2.667,2.432
			c-0.08-7.142-2.13-12.803-3.062-14.358c-1.51-2.518-12.767-10.357-12.767-10.357l-2.297-1.496
			c-0.013,0.741-0.076,13.956,8.958,16.948l4.368,5.152c0,0-3.472,2.13-5.318-1.794l-0.73-2.739c0.003,0-5.594-2.099-7.011-11.116
			l1.024,17.779c1.341,1.063,2.349,1.905,3.691,2.521c0.447,0.226,0.954,0.385,1.511,0.617c1.177,0.388,2.354,0.952,3.305,1.731
			c0.336,0.256,0.604,0.592,0.907,0.89C67.525,82.388,68.791,80.005,69.584,77.788z"/>
	</g>
</g>
</svg>
